<svg xmlns="http://www.w3.org/2000/svg" width="35.681" height="35.671" viewBox="0 0 35.681 35.671">
  <g id="Laag_2" data-name="Laag 2" transform="translate(0 35.671) rotate(-90)">
    <g id="Laag_1" data-name="Laag 1" transform="translate(0)">
      <path id="Path_1" data-name="Path 1" d="M.88,660.63V644.18h10.9a6.911,6.911,0,0,0,1.636,3.913Z" transform="translate(-0.855 -625.795)" fill="#fff"/>
      <path id="Path_2" data-name="Path 2" d="M49.638,824.419H33.35L45.859,811.91a7,7,0,0,0,3.78,1.53Z" transform="translate(-32.398 -788.738)" fill="#fff"/>
      <path id="Path_3" data-name="Path 3" d="M645.22,810.884a7.64,7.64,0,0,0,2.057-.514,7.055,7.055,0,0,0,1.792-1.091l7.768,7.768a17.876,17.876,0,0,1-11.616,4.808Z" transform="translate(-626.805 -786.183)" fill="#fff"/>
      <path id="Path_4" data-name="Path 4" d="M645.2.07a17.784,17.784,0,0,1,11.623,4.8L649.087,12.6a6.8,6.8,0,0,0-3.887-1.611Z" transform="translate(-626.786 -0.068)" fill="#fff"/>
      <path id="Path_5" data-name="Path 5" d="M812.152,644.28h10.966a17.778,17.778,0,0,1-4.766,11.6l-7.771-7.77A6.9,6.9,0,0,0,812.152,644.28Z" transform="translate(-787.446 -625.892)" fill="#fff"/>
      <path id="Path_6" data-name="Path 6" d="M12.529,205.2a6.984,6.984,0,0,0-1.606,3.843H0A17.932,17.932,0,0,1,4.817,197.49Z" transform="translate(0 -191.853)" fill="#fff"/>
      <path id="Path_7" data-name="Path 7" d="M210.7,0V10.749c0,.186,0,.174-.188.191a6.283,6.283,0,0,0-1.658.392,6.913,6.913,0,0,0-1.909,1.091c-.029.023-.06.046-.077.057L199.16,4.77A17.821,17.821,0,0,1,210.7,0Z" transform="translate(-193.476)" fill="#fff"/>
      <path id="Path_8" data-name="Path 8" d="M824.2,210.428H813.233a6.846,6.846,0,0,0-1.533-3.772l7.746-7.746A17.762,17.762,0,0,1,824.2,210.428Z" transform="translate(-788.534 -193.233)" fill="#fff"/>
    </g>
  </g>
</svg>
