<svg xmlns="http://www.w3.org/2000/svg" width="644.341" height="549.312" viewBox="0 0 644.341 549.312">
  <g id="Group_160" data-name="Group 160" transform="translate(-948.91 -42.688)">
    <g id="Group_48" data-name="Group 48" transform="matrix(0.921, -0.391, 0.391, 0.921, -374.999, 682.836)">
      <path id="blob" d="M465.5,77.043c34.016,74.069,3.175,172.475-73.474,214.095-77.1,41.62-199.559,26.1-300.246-27.511C-8.9,210.367-87.365,118.662-60.152,52.706-33.393-13.6,99.495-54.518,215.6-50.285S431.035,2.974,465.5,77.043Z" transform="translate(1451.209 174.585)" fill="#034ce2"/>
    </g>
    <g id="undraw_Stock_prices_re_js33" transform="translate(1134.629 102.805)">
      <g id="Group_55" data-name="Group 55" transform="translate(-9.892 2.409)">
        <g id="Group_51" data-name="Group 51" transform="translate(-35.785 57)">
          <g id="Group_49" data-name="Group 49" transform="translate(0 0)">
            <path id="fc914514-1042-4f3e-9382-2a2bd3a05a2f" d="M279.155,131.32a1.805,1.805,0,0,0-1.8,1.8v61.508a1.805,1.805,0,0,0,1.8,1.8H488.888a1.805,1.805,0,0,0,1.8-1.8V133.123a1.805,1.805,0,0,0-1.8-1.8Z" transform="translate(-277.352 -131.32)" fill="#e6e6e6"/>
            <path id="fc60a940-5b5f-47e1-886f-8b9349204f05" d="M284.185,194.23h204.3V138.153h-204.3Z" transform="translate(-279.667 -133.634)" fill="#fff"/>
            <path id="b37dca77-34e7-4938-924b-74ea49a8e34b" d="M552.6,205.36a2.987,2.987,0,0,0,0,5.975H564.55a2.987,2.987,0,0,0,0-5.975Z" transform="translate(-369.57 -156.398)" fill="#536dfe"/>
            <rect id="a114a1b8-363a-4115-bcea-0275bda15cb1" width="137.937" height="0.786" transform="translate(60.031 43.168)" fill="#e6e6e6"/>
            <circle id="fd059875-cd6f-429e-81eb-c199f1a3d666" cx="17.399" cy="17.399" r="17.399" transform="translate(13.799 15.158)" fill="#e6e6e6"/>
            <path id="ad693766-5e26-437f-8d3d-58ce33ee9e84" d="M368.239,182.522l-.436-.654,14.333-9.556,9.829,4.718L406.1,168l.191.081L434.227,180l22.4-11,21.748,8.817,27.326,5.555.521.589-27.692-5.231-21.873-8.869-22.4,11.005-28.073-11.975-14.157,9.044-9.82-4.714Z" transform="translate(-307.989 -143.743)" fill="#3f3d56"/>
            <path id="ff424c2d-4733-4249-9b35-4eb43ebe2556" d="M370.685,205.983a2.554,2.554,0,1,0,0,5.109h26.723a2.555,2.555,0,0,0,.082-5.108h-26.8Z" transform="translate(-308.1 -156.609)" fill="#e6e6e6"/>
          </g>
          <path id="Path_46" data-name="Path 46" d="M327.786,176.328a1.043,1.043,0,0,0-1.476,0h0l-4.48,4.48V169.762a1.044,1.044,0,0,0-2.087,0v11.046l-4.479-4.479a1.044,1.044,0,0,0-1.48,1.472l0,0,6.261,6.261a1.043,1.043,0,0,0,1.476,0l6.261-6.261A1.043,1.043,0,0,0,327.786,176.328Z" transform="translate(-289.326 -143.987)" fill="#fff"/>
        </g>
        <g id="Group_53" data-name="Group 53" transform="translate(46.992 155.508)">
          <g id="Group_52" data-name="Group 52" transform="translate(0 0)">
            <g id="Group_50" data-name="Group 50">
              <path id="ebf544e0-cedc-491d-9ace-ce79788cc3b4" d="M403.93,280.283a1.805,1.805,0,0,0-1.8,1.8v61.508a1.805,1.805,0,0,0,1.8,1.8H613.663a1.805,1.805,0,0,0,1.8-1.8V282.086a1.805,1.805,0,0,0-1.8-1.8Z" transform="translate(-402.127 -280.283)" fill="#e6e6e6"/>
              <path id="f05ecdaf-6a8f-49c4-b8a7-f7e5ce9efcf7" d="M408.961,343.193h204.3V287.116h-204.3Z" transform="translate(-404.442 -282.597)" fill="#fff"/>
              <path id="a9f7bc9d-00a6-4157-bba1-ffc7ec111a68" d="M677.377,354.325a2.987,2.987,0,0,0,0,5.975h11.948a2.987,2.987,0,1,0,0-5.975Z" transform="translate(-494.345 -305.362)" fill="#536dfe"/>
              <rect id="a15d3d52-efbb-4636-8d15-228635c5d6e5" width="137.937" height="0.786" transform="translate(60.031 43.168)" fill="#e6e6e6"/>
              <circle id="e4ee77d8-efe6-4a2a-a3ed-71b8f3ee957e" cx="17.399" cy="17.399" r="17.399" transform="translate(13.799 15.159)" fill="#536dfe"/>
              <path id="fc1c89ac-2b6e-4831-b128-0ac2ab1fa850" d="M493.012,324.115l-.436-.654,14.333-9.556,9.829,4.718,14.138-9.033.191.081L559,321.588l22.4-11,21.748,8.816,27.327-24.2.521.589L603.3,320.312l-21.874-8.868-22.4,11.005L530.95,310.474l-14.157,9.044-9.818-4.712Z" transform="translate(-432.763 -285.335)" fill="#3f3d56"/>
              <path id="bd690ac4-3df0-4871-95d5-adaa934b7c24" d="M495.439,354.946a2.555,2.555,0,1,0-.083,5.108h26.806a2.554,2.554,0,1,0,0-5.109Z" transform="translate(-432.854 -305.572)" fill="#e6e6e6"/>
            </g>
          </g>
          <path id="Path_47" data-name="Path 47" d="M438.565,325.725a1.044,1.044,0,0,0,1.476,0h0l4.479-4.479v11.046a1.043,1.043,0,1,0,2.087,0V321.245l4.48,4.479a1.043,1.043,0,0,0,1.476-1.476l-6.261-6.261a1.044,1.044,0,0,0-1.476,0l-6.261,6.261a1.043,1.043,0,0,0,0,1.476Z" transform="translate(-414.366 -292.951)" fill="#fff"/>
        </g>
        <g id="Group_54" data-name="Group 54" transform="translate(-15.099 259.402)">
          <g id="Group_52-2" data-name="Group 52" transform="translate(0)">
            <g id="Group_50-2" data-name="Group 50">
              <path id="ebf544e0-cedc-491d-9ace-ce79788cc3b4-2" data-name="ebf544e0-cedc-491d-9ace-ce79788cc3b4" d="M403.93,280.283a1.805,1.805,0,0,0-1.8,1.8v61.508a1.805,1.805,0,0,0,1.8,1.8H613.663a1.805,1.805,0,0,0,1.8-1.8V282.086a1.805,1.805,0,0,0-1.8-1.8Z" transform="translate(-402.127 -280.283)" fill="#e6e6e6"/>
              <path id="f05ecdaf-6a8f-49c4-b8a7-f7e5ce9efcf7-2" data-name="f05ecdaf-6a8f-49c4-b8a7-f7e5ce9efcf7" d="M408.961,343.193h204.3V287.116h-204.3Z" transform="translate(-404.442 -282.597)" fill="#fff"/>
              <path id="a9f7bc9d-00a6-4157-bba1-ffc7ec111a68-2" data-name="a9f7bc9d-00a6-4157-bba1-ffc7ec111a68" d="M677.377,354.325a2.987,2.987,0,0,0,0,5.975h11.948a2.987,2.987,0,1,0,0-5.975Z" transform="translate(-494.345 -305.362)" fill="#536dfe"/>
              <rect id="a15d3d52-efbb-4636-8d15-228635c5d6e5-2" data-name="a15d3d52-efbb-4636-8d15-228635c5d6e5" width="137.937" height="0.786" transform="translate(60.031 43.168)" fill="#e6e6e6"/>
              <circle id="e4ee77d8-efe6-4a2a-a3ed-71b8f3ee957e-2" data-name="e4ee77d8-efe6-4a2a-a3ed-71b8f3ee957e" cx="17.399" cy="17.399" r="17.399" transform="translate(13.799 15.159)" fill="#536dfe"/>
              <path id="fc1c89ac-2b6e-4831-b128-0ac2ab1fa850-2" data-name="fc1c89ac-2b6e-4831-b128-0ac2ab1fa850" d="M493.012,324.115l-.436-.654,14.333-9.556,9.829,4.718,14.138-9.033.191.081L559,321.588l22.4-11,21.748,8.816,27.327-24.2.521.589L603.3,320.312l-21.874-8.868-22.4,11.005L530.95,310.474l-14.157,9.044-9.818-4.712Z" transform="translate(-432.763 -285.335)" fill="#3f3d56"/>
              <path id="bd690ac4-3df0-4871-95d5-adaa934b7c24-2" data-name="bd690ac4-3df0-4871-95d5-adaa934b7c24" d="M495.439,354.946a2.555,2.555,0,1,0-.083,5.108h26.806a2.554,2.554,0,1,0,0-5.109Z" transform="translate(-432.854 -305.572)" fill="#e6e6e6"/>
            </g>
          </g>
          <path id="Path_47-2" data-name="Path 47" d="M438.565,325.725a1.044,1.044,0,0,0,1.476,0h0l4.479-4.479v11.046a1.043,1.043,0,1,0,2.087,0V321.245l4.48,4.479a1.043,1.043,0,0,0,1.476-1.476l-6.261-6.261a1.044,1.044,0,0,0-1.476,0l-6.261,6.261a1.043,1.043,0,0,0,0,1.476Z" transform="translate(-414.366 -292.951)" fill="#fff"/>
        </g>
      </g>
      <path id="Path_49" data-name="Path 49" d="M640.155,595.13h-8.272l-3.935-31.9h12.208Z" transform="translate(-286.865 -257.298)" fill="#ffb7b7"/>
      <path id="Path_50" data-name="Path 50" d="M867.927,759.03H841.256v-.337a10.382,10.382,0,0,1,10.38-10.381h16.291Z" transform="translate(-512.528 -413.179)" fill="#2f2e41"/>
      <path id="Path_51" data-name="Path 51" d="M584.259,595.13h-8.271l-3.935-31.9H584.26Z" transform="translate(-261.33 -257.298)" fill="#ffb7b7"/>
      <path id="Path_52" data-name="Path 52" d="M812.031,759.03H785.36v-.337a10.381,10.381,0,0,1,10.38-10.381h16.291Z" transform="translate(-486.993 -413.179)" fill="#2f2e41"/>
      <path id="Path_53" data-name="Path 53" d="M793.116,539.041a6.327,6.327,0,0,0,.12-9.7l4.5-13.74-7.684-4.769-6.076,19.493a6.361,6.361,0,0,0,9.144,8.716Z" transform="translate(-485.778 -304.692)" fill="#ffb7b7"/>
      <path id="Path_54" data-name="Path 54" d="M810.553,541.4s-7.721,41.792-7.624,49.9c.116,9.789,4.472,51.744,4.472,51.744l11.09-2.773,2.1-48.628,8.771-31.036,3.373,39.807,3.386,41.873h12.865l2.881-105.051-42-1.386Z" transform="translate(-495.018 -316.125)" fill="#2f2e41"/>
      <path id="Path_55" data-name="Path 55" d="M857.474,391.025l-22.18.693-13.862,85.946s29.457,13.516,41.934,3.812S857.474,391.025,857.474,391.025Z" transform="translate(-503.472 -249.961)" fill="#cbcbcb"/>
      <path id="Path_56" data-name="Path 56" d="M827.046,405.021,808.332,512.454l-11.783-3.466,8.318-38.815,4.159-38.815-.693-38.815,14.555-6.238,4.159-4.852S835.363,391.852,827.046,405.021Z" transform="translate(-492.104 -245.589)" fill="#2f2e41"/>
      <path id="Path_57" data-name="Path 57" d="M870.469,402.4l1.386,112.828,28.418-4.852-2.079-104.661,2.772-14.555L887.1,384.921l-5.613-3.466S869.083,385.221,870.469,402.4Z" transform="translate(-525.824 -245.589)" fill="#2f2e41"/>
      <path id="Path_58" data-name="Path 58" d="M574.436,272.631l-6.238-2.079-9.011,40.2-7.625,31.884,11.09,2.079,10.4-34.656Z" transform="translate(-251.97 -123.596)" fill="#2f2e41"/>
      <path id="Path_59" data-name="Path 59" d="M940.889,551.462a6.326,6.326,0,0,1-.12-9.7l-4.5-13.74,7.684-4.769,6.076,19.493a6.361,6.361,0,0,1-9.144,8.716Z" transform="translate(-555.935 -310.366)" fill="#ffb7b7"/>
      <path id="Path_60" data-name="Path 60" d="M679.625,270.147l6.238-2.079,9.011,40.2,8.3,39.98-12.482,1.836-9.679-42.509Z" transform="translate(-310.473 -122.461)" fill="#2f2e41"/>
      <circle id="Ellipse_19" data-name="Ellipse 19" cx="15.406" cy="15.406" r="15.406" transform="translate(323.526 110.551) rotate(-28.663)" fill="#ffb7b7"/>
      <path id="Path_62" data-name="Path 62" d="M850.336,308.264c14.727-4.247,18.908,7.959,18.908,7.959,7.1,4.71,2.654,10.614,2.654,10.614,1.791.4-1.79,10.88-2.985,10.615-.637-.142-2.276,1.814-3.666,3.669a7.354,7.354,0,0,0-1.42.136l2.7-9.975s-9.089-1.392-11.875-5.771c-2.666-4.189-11.443-5.511-13.94-2.713a6.317,6.317,0,0,0-.891-2.262,4.516,4.516,0,0,0-1.31-1.313C840.717,309.839,850.336,308.264,850.336,308.264Z" transform="translate(-511.273 -211.743)" fill="#2f2e41"/>
    </g>
  </g>
</svg>
